<svg width="28" height="28" viewBox="0 0 28 28" fill="none" xmlns="http://www.w3.org/2000/svg">
<rect width="28" height="28" fill="#1E1E1E"/>
<g id="Career" clip-path="url(#clip0_0_1)">
<rect width="1920" height="6623" transform="translate(-1276 -1414)" fill="#D5D9E6"/>
<g id="Sidebar Section">
<g id="Contact">
<g id="Background">
<mask id="mask0_0_1" style="mask-type:alpha" maskUnits="userSpaceOnUse" x="-57" y="-165" width="550" height="586">
<rect id="Rectangle" x="-57" y="-165" width="550" height="586" rx="25" fill="#11112B"/>
</mask>
<g mask="url(#mask0_0_1)">
<rect id="Rectangle_2" x="-57" y="-165" width="550" height="586" rx="25" fill="#11112B"/>
<g id="Wireframe Vector" opacity="0.25">
<path id="Vector" d="M1284.12 73.2067C1273.81 -20.1857 1188.23 -79.6604 1097.4 -81.8671C1006.57 -84.0738 913.317 -39.622 831.119 16.6691C748.921 72.9602 673.92 141.635 591.847 198.139C509.774 254.642 416.769 299.615 325.807 298.231C215.491 296.544 126.687 228.272 26.2359 193.098C-132.094 137.628 -326.522 168.963 -484.291 275.386C-565.621 330.236 -644.273 422.063 -633.428 513.936" stroke="white" stroke-width="0.85" stroke-linecap="round" stroke-linejoin="round"/>
<path id="Vector_2" d="M1295.16 91.7531C1284.85 -1.63928 1199.27 -61.114 1108.44 -63.3207C1017.61 -65.5274 924.357 -21.0756 842.159 35.2155C759.961 91.5066 684.96 160.182 602.887 216.685C520.814 273.188 427.809 318.161 336.847 316.778C226.531 315.09 137.727 246.819 37.2756 211.645C-121.055 156.175 -315.483 187.51 -473.252 293.932C-554.581 348.782 -633.233 440.61 -622.388 532.483" stroke="white" stroke-width="0.85" stroke-linecap="round" stroke-linejoin="round"/>
<path id="Vector_3" d="M1306.21 110.321C1295.9 16.9289 1210.32 -42.5458 1119.49 -44.7525C1028.66 -46.9592 935.403 -2.50743 853.205 53.7837C771.007 110.075 696.005 178.75 613.932 235.253C531.859 291.757 438.855 336.729 347.893 335.346C237.577 333.659 148.772 265.387 48.3212 230.213C-110.009 174.743 -304.437 206.078 -462.206 312.501C-543.535 367.35 -622.188 459.178 -611.343 551.051" stroke="white" stroke-width="0.85" stroke-linecap="round" stroke-linejoin="round"/>
<path id="Vector_4" d="M1317.23 128.898C1306.92 35.506 1221.34 -23.9687 1130.51 -26.1754C1039.68 -28.3821 946.427 16.0697 864.229 72.3608C782.031 128.652 707.029 197.327 624.956 253.83C542.883 310.334 449.879 355.306 358.917 353.923C248.6 352.236 159.796 283.964 59.3451 248.79C-98.9852 193.32 -293.413 224.655 -451.182 331.078C-532.511 385.928 -611.164 477.755 -600.319 569.628" stroke="white" stroke-width="0.85" stroke-linecap="round" stroke-linejoin="round"/>
<path id="Vector_5" d="M1328.28 147.467C1317.97 54.0742 1232.39 -5.40057 1141.56 -7.60727C1050.73 -9.81398 957.472 34.6378 875.274 90.9289C793.076 147.22 718.075 215.895 636.002 272.399C553.929 328.902 460.924 373.874 369.962 372.491C259.646 370.804 170.842 302.532 70.3906 267.358C-87.9397 211.888 -282.368 243.223 -440.137 349.646C-521.466 404.496 -600.118 496.323 -589.273 588.196" stroke="white" stroke-width="0.85" stroke-linecap="round" stroke-linejoin="round"/>
<path id="Vector_6" d="M1339.32 166.013C1329.01 72.6204 1243.43 13.1457 1152.6 10.939C1061.77 8.73228 968.512 53.184 886.314 109.475C804.116 165.766 729.114 234.441 647.041 290.945C564.968 347.448 471.964 392.421 381.002 391.037C270.686 389.35 181.882 321.078 81.4304 285.904C-76.8999 230.434 -271.328 261.769 -429.097 368.192C-510.426 423.042 -589.079 514.869 -578.233 606.742" stroke="white" stroke-width="0.85" stroke-linecap="round" stroke-linejoin="round"/>
<path id="Vector_7" d="M1350.36 184.581C1340.05 91.1885 1254.47 31.7138 1163.64 29.5071C1072.81 27.3004 979.557 71.7522 897.359 128.043C815.161 184.334 740.16 253.01 658.087 309.513C576.014 366.016 483.009 410.989 392.048 409.605C281.731 407.918 192.927 339.647 92.4759 304.472C-65.8544 249.003 -260.282 280.337 -418.051 386.76C-499.38 441.61 -578.033 533.438 -567.188 625.31" stroke="white" stroke-width="0.85" stroke-linecap="round" stroke-linejoin="round"/>
<path id="Vector_8" d="M1361.38 203.158C1351.08 109.766 1265.49 50.2908 1174.66 48.0841C1083.84 45.8774 990.581 90.3291 908.383 146.62C826.185 202.911 751.183 271.586 669.11 328.09C587.037 384.593 494.033 429.566 403.071 428.182C292.755 426.495 203.95 358.224 103.499 323.049C-54.8309 267.58 -249.259 298.914 -407.028 405.337C-488.357 460.187 -567.01 552.015 -556.164 643.887" stroke="white" stroke-width="0.85" stroke-linecap="round" stroke-linejoin="round"/>
<path id="Vector_9" d="M1372.43 221.726C1362.12 128.334 1276.54 68.859 1185.71 66.6523C1094.88 64.4456 1001.63 108.897 919.428 165.188C837.23 221.48 762.229 290.155 680.156 346.658C598.083 403.161 505.078 448.134 414.117 446.75C303.8 445.063 214.996 376.792 114.545 341.617C-43.7853 286.148 -238.213 317.483 -395.982 423.905C-477.311 478.755 -555.964 570.583 -545.119 662.456" stroke="white" stroke-width="0.85" stroke-linecap="round" stroke-linejoin="round"/>
<path id="Vector_10" d="M1383.48 240.294C1373.17 146.902 1287.59 87.4268 1196.76 85.2201C1105.93 83.0134 1012.67 127.465 930.474 183.756C848.276 240.047 773.274 308.723 691.201 365.226C609.128 421.729 516.124 466.702 425.162 465.318C314.846 463.631 226.041 395.36 125.59 360.185C-32.74 304.716 -227.168 336.05 -384.937 442.473C-466.266 497.323 -544.919 589.151 -534.074 681.024" stroke="white" stroke-width="0.85" stroke-linecap="round" stroke-linejoin="round"/>
</g>
</g>
</g>
<g id="Phone">
<g id="Phone Icon" clip-path="url(#clip1_0_1)">
<g id="Group">
<g id="Group_2">
<path id="Vector_11" d="M23.898 4.09898C18.4299 -1.36753 9.56552 -1.36621 4.09901 4.10199C-1.3675 9.57019 -1.36618 18.4345 4.10202 23.901C9.57022 29.3675 18.4345 29.3662 23.901 23.898C26.5264 21.2718 28.0008 17.7103 28 13.997C27.9993 10.2842 26.5237 6.72387 23.898 4.09898ZM21.2025 19.5018C21.2019 19.5024 21.2013 19.5031 21.2007 19.5037V19.499L20.4913 20.2037C19.5739 21.1327 18.2379 21.5149 16.968 21.2117C15.6886 20.8692 14.4723 20.3241 13.3653 19.597C12.3369 18.9397 11.3838 18.1714 10.5233 17.3057C9.73161 16.5198 9.02034 15.6568 8.39997 14.7297C7.7214 13.7321 7.18432 12.6453 6.80397 11.5003C6.36794 10.1552 6.72926 8.67928 7.73732 7.68769L8.56797 6.85704C8.79891 6.62505 9.17418 6.62423 9.40611 6.85518C9.40671 6.85578 9.40736 6.85638 9.40797 6.85704L12.0306 9.47969C12.2626 9.71063 12.2634 10.0859 12.0325 10.3178C12.0319 10.3184 12.0313 10.319 12.0306 10.3197L10.4906 11.8597C10.0487 12.2967 9.99318 12.9913 10.36 13.493C10.917 14.2575 11.5333 14.9768 12.2033 15.6444C12.9503 16.3946 13.7623 17.077 14.63 17.6837C15.1313 18.0334 15.8109 17.9745 16.2446 17.5437L17.7333 16.0317C17.9642 15.7998 18.3395 15.7989 18.5714 16.0299C18.572 16.0305 18.5726 16.0311 18.5733 16.0317L21.2006 18.6637C21.4327 18.8946 21.4335 19.2698 21.2025 19.5018Z" fill="#92DEED"/>
</g>
</g>
</g>
</g>
</g>
</g>
</g>
<defs>
<clipPath id="clip0_0_1">
<rect width="1920" height="6623" fill="white" transform="translate(-1276 -1414)"/>
</clipPath>
<clipPath id="clip1_0_1">
<rect width="28" height="28" fill="white"/>
</clipPath>
</defs>
</svg>
