<svg width="48" height="48" viewBox="0 0 48 48" fill="none" xmlns="http://www.w3.org/2000/svg">
<g clip-path="url(#clip0_129_2291)">
<path d="M47.2328 22.135L29.8983 4.80012C29.4035 4.3053 28.744 4.03369 28.0408 4.03369C27.3368 4.03369 26.6776 4.30569 26.1828 4.80012L24.609 6.37435C24.1145 6.8684 23.8421 7.5283 23.8421 8.2319C23.8421 8.93511 24.1145 9.61726 24.609 10.1113L34.7217 20.2462H2.59315C1.14458 20.2462 0 21.3803 0 22.8292V25.0548C0 26.5038 1.14458 27.7521 2.59315 27.7521H34.8364L24.6094 37.9437C24.1149 38.4385 23.8425 39.0804 23.8425 39.784C23.8425 40.4869 24.1149 41.1382 24.6094 41.6326L26.1832 43.2018C26.678 43.6966 27.3371 43.9662 28.0411 43.9662C28.7444 43.9662 29.4039 43.6931 29.8987 43.1983L47.2332 25.8638C47.7292 25.3674 48.002 24.7047 48 24.0004C48.0016 23.2936 47.7292 22.6306 47.2328 22.135Z" fill="white"/>
</g>
<defs>
<clipPath id="clip0_129_2291">
<rect width="48" height="48" fill="white"/>
</clipPath>
</defs>
</svg>
