<svg width="1920" height="1693" viewBox="0 0 1920 1693" fill="none" xmlns="http://www.w3.org/2000/svg">
<rect width="1920" height="1693" fill="#D5D9E6"/>
<g clip-path="url(#clip0_129_756)">
<path d="M1773.32 931.553H1140.99C1140.73 931.547 1140.48 931.437 1140.29 931.247C1140.1 931.058 1140 930.803 1140 930.537C1140 930.272 1140.1 930.017 1140.29 929.827C1140.48 929.637 1140.73 929.528 1140.99 929.522H1773.32C1773.58 929.528 1773.83 929.637 1774.02 929.827C1774.21 930.017 1774.31 930.272 1774.31 930.537C1774.31 930.803 1774.21 931.058 1774.02 931.247C1773.83 931.437 1773.58 931.547 1773.32 931.553Z" fill="#CACACA"/>
<path d="M1163.35 917.338C1169.38 917.338 1174.27 912.337 1174.27 906.169C1174.27 900 1169.38 895 1163.35 895C1157.32 895 1152.42 900 1152.42 906.169C1152.42 912.337 1157.32 917.338 1163.35 917.338Z" fill="#3F3D56"/>
<path d="M1201.09 917.338C1207.12 917.338 1212.01 912.337 1212.01 906.169C1212.01 900 1207.12 895 1201.09 895C1195.06 895 1190.16 900 1190.16 906.169C1190.16 912.337 1195.06 917.338 1201.09 917.338Z" fill="#3F3D56"/>
<path d="M1238.83 917.338C1244.87 917.338 1249.76 912.337 1249.76 906.169C1249.76 900 1244.87 895 1238.83 895C1232.8 895 1227.91 900 1227.91 906.169C1227.91 912.337 1232.8 917.338 1238.83 917.338Z" fill="#3F3D56"/>
<path d="M1750.7 897.768H1723.89C1723.36 897.779 1722.85 897.997 1722.48 898.377C1722.11 898.756 1721.9 899.267 1721.9 899.798C1721.9 900.33 1722.11 900.84 1722.48 901.219C1722.85 901.599 1723.36 901.818 1723.89 901.828H1750.7C1751.23 901.818 1751.74 901.599 1752.11 901.219C1752.48 900.84 1752.69 900.33 1752.69 899.798C1752.69 899.267 1752.48 898.756 1752.11 898.377C1751.74 897.997 1751.23 897.779 1750.7 897.768Z" fill="#3F3D56"/>
<path d="M1750.7 905.388H1723.89C1723.36 905.399 1722.85 905.617 1722.48 905.997C1722.11 906.376 1721.9 906.887 1721.9 907.418C1721.9 907.95 1722.11 908.46 1722.48 908.84C1722.85 909.219 1723.36 909.438 1723.89 909.448H1750.7C1751.23 909.438 1751.74 909.219 1752.11 908.84C1752.48 908.46 1752.69 907.95 1752.69 907.418C1752.69 906.887 1752.48 906.376 1752.11 905.997C1751.74 905.617 1751.23 905.399 1750.7 905.388Z" fill="#3F3D56"/>
<path d="M1750.7 912.998H1723.89C1723.36 913.009 1722.85 913.227 1722.48 913.607C1722.11 913.986 1721.9 914.497 1721.9 915.028C1721.9 915.56 1722.11 916.07 1722.48 916.449C1722.85 916.829 1723.36 917.047 1723.89 917.058H1750.7C1751.23 917.047 1751.74 916.829 1752.11 916.449C1752.48 916.07 1752.69 915.56 1752.69 915.028C1752.69 914.497 1752.48 913.986 1752.11 913.607C1751.74 913.227 1751.23 913.009 1750.7 912.998Z" fill="#3F3D56"/>
<path d="M1740.69 965.836H1164.75C1161.56 965.841 1158.5 967.11 1156.25 969.365C1153.99 971.62 1152.72 974.677 1152.72 977.866V979.806C1152.72 982.995 1153.99 986.052 1156.25 988.307C1158.5 990.562 1161.56 991.831 1164.75 991.836H1740.69C1743.88 991.831 1746.93 990.562 1749.19 988.307C1751.45 986.052 1752.71 982.995 1752.72 979.806V977.866C1752.71 974.677 1751.45 971.62 1749.19 969.365C1746.93 967.11 1743.88 965.841 1740.69 965.836Z" fill="#F0F0F0"/>
<path d="M1234.25 983.636H1179.43C1178.2 983.634 1177.03 983.146 1176.16 982.278C1175.3 981.41 1174.81 980.233 1174.81 979.006C1174.81 977.78 1175.3 976.603 1176.16 975.735C1177.03 974.867 1178.2 974.379 1179.43 974.377H1234.25C1240.22 974.294 1240.28 983.72 1234.25 983.636Z" fill="white"/>
<path d="M1398.25 983.636H1343.43C1342.2 983.634 1341.03 983.146 1340.16 982.278C1339.3 981.41 1338.81 980.233 1338.81 979.006C1338.81 977.78 1339.3 976.603 1340.16 975.735C1341.03 974.867 1342.2 974.379 1343.43 974.377H1398.25C1404.22 974.294 1404.28 983.72 1398.25 983.636Z" fill="white"/>
<path d="M1562.25 983.636H1507.43C1506.2 983.634 1505.03 983.146 1504.16 982.278C1503.3 981.41 1502.81 980.233 1502.81 979.006C1502.81 977.78 1503.3 976.603 1504.16 975.735C1505.03 974.867 1506.2 974.379 1507.43 974.377H1562.25C1568.22 974.294 1568.28 983.72 1562.25 983.636Z" fill="white"/>
<path d="M1717.75 984.136H1662.93C1661.7 984.136 1660.52 983.648 1659.66 982.78C1658.79 981.912 1658.3 980.734 1658.3 979.506C1658.3 978.279 1658.79 977.101 1659.66 976.233C1660.52 975.365 1661.7 974.877 1662.93 974.877H1717.75C1723.72 974.794 1723.78 984.22 1717.75 984.136Z" fill="#11112B"/>
<path d="M1632.22 965.836H1630.22V991.836H1632.22V965.836Z" fill="white"/>
<path d="M1425.26 1350.65H1190.21C1188.12 1350.65 1186.11 1349.81 1184.63 1348.33C1183.15 1346.85 1182.31 1344.84 1182.31 1342.75V1308.32C1182.31 1306.23 1183.15 1304.22 1184.63 1302.74C1186.11 1301.26 1188.12 1300.43 1190.21 1300.42H1425.26C1427.36 1300.43 1429.37 1301.26 1430.85 1302.74C1432.33 1304.22 1433.16 1306.23 1433.16 1308.32V1342.75C1433.16 1344.84 1432.33 1346.85 1430.85 1348.33C1429.37 1349.81 1427.36 1350.65 1425.26 1350.65Z" fill="#F0F0F0"/>
<path d="M1402.43 1345.32H1195.54C1193.45 1345.32 1191.44 1344.48 1189.96 1343C1188.48 1341.52 1187.64 1339.51 1187.64 1337.42V1313.66C1187.64 1311.56 1188.48 1309.55 1189.96 1308.07C1191.44 1306.59 1193.45 1305.76 1195.54 1305.76H1419.94C1422.03 1305.76 1424.04 1306.59 1425.52 1308.07C1427 1309.55 1427.83 1311.56 1427.83 1313.66V1319.91C1427.83 1326.65 1425.15 1333.11 1420.38 1337.87C1415.62 1342.63 1409.16 1345.31 1402.43 1345.32Z" fill="white"/>
<path d="M1331.06 1323.09H1236.59C1236.05 1323.09 1235.53 1322.87 1235.15 1322.49C1234.77 1322.11 1234.55 1321.59 1234.55 1321.05C1234.55 1320.51 1234.77 1319.99 1235.15 1319.61C1235.53 1319.23 1236.05 1319.01 1236.59 1319.01H1331.06C1331.6 1319.01 1332.12 1319.23 1332.5 1319.61C1332.88 1319.99 1333.1 1320.51 1333.1 1321.05C1333.1 1321.59 1332.88 1322.11 1332.5 1322.49C1332.12 1322.87 1331.6 1323.09 1331.06 1323.09Z" fill="#E6E6E6"/>
<path d="M1378.89 1331.42H1236.59C1236.32 1331.42 1236.06 1331.37 1235.81 1331.27C1235.56 1331.16 1235.33 1331.01 1235.15 1330.82C1234.96 1330.64 1234.81 1330.41 1234.7 1330.16C1234.6 1329.92 1234.55 1329.65 1234.55 1329.38C1234.55 1329.11 1234.6 1328.85 1234.7 1328.6C1234.81 1328.35 1234.96 1328.13 1235.15 1327.94C1235.33 1327.75 1235.56 1327.6 1235.81 1327.5C1236.06 1327.4 1236.32 1327.34 1236.59 1327.35H1378.89C1379.43 1327.35 1379.94 1327.56 1380.32 1327.94C1380.71 1328.33 1380.92 1328.84 1380.92 1329.38C1380.92 1329.92 1380.71 1330.44 1380.32 1330.82C1379.94 1331.2 1379.43 1331.42 1378.89 1331.42Z" fill="#E6E6E6"/>
<path d="M1440.28 1261.04H1172.27C1170.13 1261.03 1168.08 1260.18 1166.57 1258.67C1165.05 1257.16 1164.2 1255.11 1164.2 1252.97V1048.1C1164.2 1045.96 1165.05 1043.91 1166.57 1042.4C1168.08 1040.89 1170.13 1040.04 1172.27 1040.04H1440.28C1442.42 1040.04 1444.47 1040.89 1445.98 1042.4C1447.49 1043.91 1448.34 1045.96 1448.34 1048.1V1252.97C1448.34 1255.11 1447.49 1257.16 1445.98 1258.67C1444.47 1260.18 1442.42 1261.03 1440.28 1261.04Z" fill="white"/>
<path d="M1440.28 1262.04H1172.27C1169.86 1262.03 1167.56 1261.08 1165.86 1259.38C1164.16 1257.68 1163.2 1255.37 1163.2 1252.97V1048.1C1163.2 1045.7 1164.16 1043.39 1165.86 1041.69C1167.56 1039.99 1169.86 1039.04 1172.27 1039.04H1440.28C1442.68 1039.04 1444.99 1039.99 1446.69 1041.69C1448.38 1043.39 1449.34 1045.7 1449.34 1048.1V1252.97C1449.34 1255.37 1448.38 1257.68 1446.69 1259.38C1444.99 1261.08 1442.68 1262.03 1440.28 1262.04ZM1172.27 1041.04C1170.39 1041.04 1168.6 1041.78 1167.27 1043.11C1165.95 1044.43 1165.2 1046.23 1165.2 1048.1V1252.97C1165.2 1254.84 1165.95 1256.64 1167.27 1257.96C1168.6 1259.29 1170.39 1260.03 1172.27 1260.04H1440.28C1442.15 1260.03 1443.95 1259.29 1445.27 1257.96C1446.6 1256.64 1447.34 1254.84 1447.34 1252.97V1048.1C1447.34 1046.23 1446.6 1044.43 1445.27 1043.11C1443.95 1041.78 1442.15 1041.04 1440.28 1041.04L1172.27 1041.04Z" fill="#F0F0F0"/>
<path d="M1164.82 1222.04V1252.97C1164.82 1254.94 1165.61 1256.84 1167 1258.23C1168.4 1259.63 1170.29 1260.41 1172.27 1260.42H1440.28C1442.25 1260.41 1444.14 1259.63 1445.54 1258.23C1446.94 1256.84 1447.72 1254.94 1447.73 1252.97V1222.04H1164.82Z" fill="#F0F0F0"/>
<path d="M1167.35 1041.34L1166.27 1043.03L1447.19 1222.88L1448.26 1221.19L1167.35 1041.34Z" fill="#F0F0F0"/>
<path d="M1447.98 1041.34L1167.06 1221.19L1168.14 1222.88L1449.06 1043.03L1447.98 1041.34Z" fill="#F0F0F0"/>
<path d="M1685.36 1482.79L1672.97 1482.79L1667.08 1435L1685.37 1435L1685.36 1482.79Z" fill="#A0616A"/>
<path d="M1685.03 1478.74L1671.81 1473.37L1671.42 1473.21L1664.12 1478.74C1660.12 1478.74 1656.27 1480.28 1653.37 1483.06C1650.48 1485.83 1648.77 1489.61 1648.59 1493.61C1648.57 1493.83 1648.57 1494.06 1648.57 1494.29V1494.8H1688.52V1478.74H1685.03Z" fill="#2F2E41"/>
<path d="M1656.35 1471.26L1644.66 1475.37L1623.24 1432.24L1640.49 1426.18L1656.35 1471.26Z" fill="#A0616A"/>
<path d="M1654.69 1467.55L1640.44 1466.87L1640.02 1466.85L1634.97 1474.49C1631.19 1475.82 1628.07 1478.55 1626.26 1482.13C1624.45 1485.7 1624.09 1489.84 1625.25 1493.67C1625.31 1493.88 1625.38 1494.1 1625.46 1494.32L1625.63 1494.8L1663.32 1481.54L1657.98 1466.39L1654.69 1467.55Z" fill="#2F2E41"/>
<path d="M1689.74 1276.73C1701.08 1276.29 1687.04 1366.62 1687.04 1366.62C1687.04 1366.62 1691.14 1445.93 1690.27 1450.09C1689.4 1454.25 1690.16 1465.47 1690.16 1465.47C1687.94 1461.43 1665.03 1464.48 1665.03 1464.48L1661.91 1384.11L1646 1319.71L1623.94 1362.87L1645.08 1429.14C1645.08 1429.14 1653.65 1437.06 1652.74 1440.19C1651.83 1443.32 1629.4 1450.38 1625.27 1450.54C1621.15 1450.7 1623.01 1445.47 1622.81 1440.32C1622.61 1435.17 1603.22 1387.41 1596.4 1371.17C1589.57 1354.92 1594.88 1332.01 1598.36 1315.36C1601.84 1298.71 1620.16 1267.47 1620.16 1267.47C1642.9 1241.82 1678.41 1277.17 1689.74 1276.73Z" fill="#2F2E41"/>
<path d="M1551.61 1203.73C1552.23 1204.92 1553.1 1205.95 1554.16 1206.77C1555.23 1207.58 1556.46 1208.15 1557.77 1208.43C1559.07 1208.72 1560.43 1208.71 1561.73 1208.42C1563.04 1208.12 1564.27 1207.55 1565.33 1206.73L1592.58 1224.51L1592.5 1207.6L1566.63 1193.3C1565.13 1191.62 1563.07 1190.54 1560.83 1190.27C1558.6 1190 1556.34 1190.56 1554.48 1191.84C1552.63 1193.13 1551.32 1195.05 1550.79 1197.24C1550.26 1199.43 1550.55 1201.74 1551.61 1203.73Z" fill="#A0616A"/>
<path d="M1683.85 1291.21C1655.75 1291.21 1640.25 1285.58 1632.03 1280.56C1621.97 1274.42 1620.25 1267.94 1620.18 1267.66L1620.16 1267.59L1621.14 1255.27L1621.57 1254.31C1623.54 1249.89 1623.8 1244.9 1622.3 1240.3L1622.27 1240.21L1622.28 1240.11L1628.85 1154.86L1652.11 1147.24L1658.88 1140.44L1689.01 1140.01L1693.2 1148.52L1716.95 1157.46L1705.29 1226.92L1699.69 1236.56L1701.94 1247.06L1701.93 1247.15L1694.59 1290.95L1694.18 1290.97C1690.57 1291.13 1687.12 1291.21 1683.85 1291.21Z" fill="#3F3D56"/>
<path d="M1611.13 1238.03L1600.1 1231.49L1599.41 1230.49C1598.01 1228.47 1596.15 1226.81 1593.99 1225.64C1591.83 1224.47 1589.42 1223.82 1586.96 1223.74L1586.83 1223.74L1571.64 1214.81L1577.94 1196.37L1601.75 1203.4L1618.35 1162.16C1619.26 1159.89 1620.78 1157.92 1622.75 1156.47C1624.71 1155.02 1627.04 1154.14 1629.47 1153.93C1631.9 1153.73 1634.34 1154.2 1636.53 1155.29C1638.71 1156.39 1640.54 1158.07 1641.82 1160.15C1643.14 1162.32 1643.82 1164.82 1643.79 1167.36V1194.34L1643.69 1194.48L1611.13 1238.03Z" fill="#3F3D56"/>
<path d="M1684.86 1275.35C1685.1 1274.03 1685.62 1272.78 1686.39 1271.68C1687.16 1270.59 1688.16 1269.68 1689.32 1269.01C1690.49 1268.35 1691.78 1267.95 1693.11 1267.83C1694.45 1267.72 1695.79 1267.9 1697.05 1268.37L1717.7 1243.22L1722.7 1259.37L1702.32 1280.78C1701.4 1282.84 1699.76 1284.49 1697.71 1285.42C1695.65 1286.35 1693.33 1286.49 1691.18 1285.82C1689.03 1285.15 1687.19 1283.71 1686.03 1281.78C1684.86 1279.85 1684.45 1277.56 1684.86 1275.35Z" fill="#A0616A"/>
<path d="M1715.74 1272.17L1702.03 1258.45L1710.76 1237.18L1723.41 1219.9C1709.93 1213.33 1699.81 1197.78 1692.47 1184.91L1692.39 1184.77L1694.22 1170.46C1694.64 1167.12 1695.98 1163.95 1698.09 1161.32C1699.92 1159.03 1702.28 1157.21 1704.95 1156.01C1707.63 1154.82 1710.56 1154.28 1713.49 1154.45C1716.41 1154.62 1719.26 1155.48 1721.78 1156.98C1724.31 1158.47 1726.44 1160.54 1728 1163.03L1752.59 1217.7L1752.31 1218.11L1732.53 1251.83L1727.14 1255.33L1715.74 1272.17Z" fill="#3F3D56"/>
<path d="M1695.57 1111.33C1694.67 1117.92 1691.18 1123.89 1685.89 1127.91C1680.59 1131.94 1673.91 1133.69 1667.31 1132.8C1660.72 1131.9 1654.76 1128.42 1650.73 1123.13C1646.7 1117.83 1644.93 1111.16 1645.82 1104.56L1645.87 1104.21C1646.91 1097.7 1650.47 1091.86 1655.77 1087.96C1661.07 1084.05 1667.7 1082.38 1674.22 1083.32C1680.74 1084.25 1686.64 1087.71 1690.63 1092.96C1694.62 1098.2 1696.39 1104.8 1695.56 1111.33L1695.57 1111.33Z" fill="#A0616A"/>
<path d="M1689.18 1124.26C1690.47 1121.64 1691.8 1118.83 1691.44 1115.94C1691.07 1113.04 1688.23 1110.27 1685.44 1111.13C1683.78 1111.65 1682.51 1113.29 1680.77 1113.38C1678.37 1113.49 1677 1110.75 1676.25 1108.47L1673.21 1099.17C1670.29 1101.45 1666.9 1103.05 1663.29 1103.86C1659.68 1104.68 1655.93 1104.69 1652.32 1103.89C1649.5 1103.25 1646.64 1101.99 1644.99 1099.61C1643.33 1097.23 1643.34 1093.55 1645.61 1091.75C1646.73 1090.87 1648.21 1090.54 1649.27 1089.6C1649.93 1089.01 1650.39 1088.23 1650.57 1087.37C1650.75 1086.51 1650.65 1085.61 1650.29 1084.81C1649.92 1084.01 1649.3 1083.35 1648.53 1082.93C1647.76 1082.5 1646.87 1082.34 1646 1082.46L1653.65 1081.5L1651.37 1077.37C1652.24 1077.96 1653.22 1078.37 1654.25 1078.56C1655.28 1078.75 1656.34 1078.72 1657.36 1078.47C1659.42 1078.1 1661.36 1077.25 1663.38 1076.69C1668.26 1075.44 1673.42 1075.82 1678.07 1077.77C1682.72 1079.73 1686.6 1083.14 1689.13 1087.5C1691.02 1086.87 1693.05 1086.83 1694.96 1087.38C1696.87 1087.93 1698.56 1089.05 1699.82 1090.59C1701.87 1093.19 1702.43 1096.66 1702.51 1099.97C1702.66 1106.5 1701.23 1112.97 1698.36 1118.83C1697.53 1120.7 1696.35 1122.38 1694.87 1123.78C1694.13 1124.48 1693.24 1125 1692.27 1125.32C1691.31 1125.63 1690.28 1125.73 1689.27 1125.61" fill="#2F2E41"/>
<path d="M1282.37 1098.43C1282.78 1104.28 1284.51 1109.96 1287.41 1115.05C1293.54 1125.81 1304.05 1133.6 1315.36 1138.23C1329.5 1144.02 1345.26 1144.2 1360.27 1142.91C1374.21 1141.71 1388 1138.93 1401.99 1138.36C1412.81 1138.01 1423.64 1138.27 1434.42 1139.13C1455.36 1140.62 1476.2 1143.37 1496.91 1146.72C1502.52 1147.61 1508.12 1148.57 1513.7 1149.6C1514.23 1149.64 1514.75 1149.74 1515.26 1149.89C1515.36 1149.93 1515.53 1149.9 1515.62 1149.95C1515.79 1150.06 1514.94 1149.68 1515.45 1150.11C1516.17 1150.86 1516.81 1151.69 1517.37 1152.57L1525.01 1162.42C1527.21 1165.24 1529.24 1168.67 1532.08 1170.89C1534.08 1172.44 1536.49 1173.35 1539.01 1173.53C1541.53 1173.71 1544.04 1173.13 1546.24 1171.88C1548.53 1170.43 1550.36 1168.36 1551.5 1165.9C1553.26 1162.67 1555.36 1159.64 1557.76 1156.86C1566.86 1146.24 1579.51 1139.72 1590.09 1130.78C1595.21 1126.63 1599.59 1121.64 1603.02 1116.01C1605.94 1110.91 1607.76 1105.26 1608.36 1099.41C1609.63 1087.54 1605.98 1075.43 1599.86 1065.33C1593.19 1054.48 1583.62 1045.72 1572.22 1040.04C1559.42 1033.52 1545.25 1030.34 1531.05 1028.76C1515.98 1027.08 1500.73 1027.08 1485.58 1027.25C1468.57 1027.44 1451.6 1028.19 1434.66 1029.5C1417.7 1030.81 1400.8 1032.67 1383.97 1035.09C1367.82 1037.42 1351.47 1039.84 1335.66 1043.94C1321.7 1047.57 1307.77 1053.25 1297.35 1063.53C1288.07 1072.66 1281.63 1085.17 1282.37 1098.43Z" fill="#11112B"/>
<path d="M1360.43 1102.21C1359.74 1102.18 1359.07 1102.01 1358.45 1101.7C1357.83 1101.39 1357.28 1100.96 1356.83 1100.44C1356.39 1099.91 1356.05 1099.29 1355.86 1098.63C1355.66 1097.97 1355.61 1097.27 1355.69 1096.59L1356.05 1093.76C1356.12 1093.22 1356.05 1092.67 1355.86 1092.16C1355.67 1091.65 1355.36 1091.19 1354.95 1090.82L1352.83 1088.93C1352.14 1088.31 1351.63 1087.5 1351.37 1086.61C1351.1 1085.72 1351.1 1084.77 1351.35 1083.87C1351.6 1082.97 1352.09 1082.16 1352.78 1081.53C1353.46 1080.9 1354.31 1080.47 1355.23 1080.3L1358.02 1079.77C1358.56 1079.67 1359.06 1079.44 1359.49 1079.1C1359.92 1078.76 1360.26 1078.32 1360.48 1077.82L1361.62 1075.21C1362 1074.36 1362.61 1073.63 1363.38 1073.1C1364.15 1072.58 1365.05 1072.28 1365.98 1072.24C1366.91 1072.2 1367.83 1072.42 1368.64 1072.88C1369.45 1073.33 1370.12 1074.01 1370.57 1074.82L1371.94 1077.32C1372.2 1077.8 1372.58 1078.21 1373.03 1078.51C1373.49 1078.81 1374.01 1079 1374.55 1079.05L1377.39 1079.34C1378.31 1079.43 1379.2 1079.78 1379.93 1080.35C1380.67 1080.92 1381.23 1081.69 1381.56 1082.56C1381.89 1083.43 1381.96 1084.38 1381.78 1085.29C1381.59 1086.2 1381.16 1087.05 1380.52 1087.73L1378.57 1089.8C1378.19 1090.2 1377.92 1090.68 1377.78 1091.21C1377.63 1091.73 1377.61 1092.29 1377.73 1092.82L1378.33 1095.6C1378.53 1096.51 1378.47 1097.46 1378.15 1098.34C1377.84 1099.22 1377.29 1099.99 1376.56 1100.57C1375.83 1101.15 1374.95 1101.51 1374.03 1101.62C1373.1 1101.73 1372.17 1101.57 1371.32 1101.18L1368.75 1099.96C1368.26 1099.73 1367.71 1099.62 1367.17 1099.64C1366.62 1099.66 1366.09 1099.82 1365.62 1100.1L1363.16 1101.53C1362.33 1102.01 1361.39 1102.25 1360.43 1102.21Z" fill="white"/>
<path d="M1400.53 1101.05C1399.26 1100.99 1398.06 1100.45 1397.17 1099.54C1396.63 1098.97 1396.22 1098.29 1395.99 1097.54C1395.76 1096.79 1395.69 1096 1395.81 1095.22L1396.14 1092.63C1396.21 1092.08 1396.15 1091.52 1395.95 1091C1395.76 1090.47 1395.44 1090.01 1395.02 1089.64L1393.05 1087.88C1392.47 1087.38 1392.01 1086.76 1391.7 1086.07C1391.39 1085.37 1391.24 1084.61 1391.26 1083.85C1391.3 1082.72 1391.72 1081.64 1392.46 1080.78C1393.2 1079.92 1394.21 1079.34 1395.32 1079.13L1398.09 1078.61C1398.63 1078.51 1399.15 1078.27 1399.58 1077.92C1400.02 1077.58 1400.36 1077.13 1400.59 1076.62L1401.62 1074.28C1401.98 1073.39 1402.59 1072.62 1403.37 1072.06C1404.14 1071.49 1405.06 1071.15 1406.02 1071.08C1406.96 1071.02 1407.9 1071.24 1408.72 1071.69C1409.54 1072.15 1410.22 1072.83 1410.67 1073.66L1412.02 1076.13C1412.29 1076.61 1412.67 1077.03 1413.13 1077.34C1413.6 1077.65 1414.13 1077.84 1414.68 1077.89L1417.31 1078.16C1418.07 1078.22 1418.81 1078.44 1419.47 1078.83C1420.13 1079.21 1420.7 1079.73 1421.13 1080.36C1421.76 1081.3 1422.05 1082.42 1421.96 1083.55C1421.86 1084.68 1421.39 1085.74 1420.61 1086.56L1418.69 1088.61C1418.31 1089.02 1418.03 1089.51 1417.88 1090.04C1417.73 1090.58 1417.71 1091.14 1417.83 1091.69L1418.39 1094.26C1418.57 1095 1418.58 1095.77 1418.42 1096.52C1418.26 1097.27 1417.94 1097.97 1417.48 1098.58C1416.79 1099.47 1415.8 1100.1 1414.7 1100.36C1413.6 1100.62 1412.44 1100.5 1411.42 1100.01L1408.87 1098.81C1408.37 1098.57 1407.81 1098.46 1407.26 1098.49C1406.7 1098.51 1406.16 1098.67 1405.68 1098.95L1403.25 1100.36C1402.43 1100.85 1401.48 1101.08 1400.53 1101.05Z" fill="white"/>
<path d="M1440.73 1100.88C1440.04 1100.84 1439.36 1100.67 1438.74 1100.37C1438.12 1100.06 1437.57 1099.63 1437.13 1099.1C1436.68 1098.57 1436.35 1097.96 1436.15 1097.3C1435.96 1096.63 1435.9 1095.94 1435.99 1095.25L1436.35 1092.43C1436.41 1091.88 1436.35 1091.33 1436.16 1090.82C1435.97 1090.31 1435.65 1089.85 1435.25 1089.49L1433.13 1087.59C1432.43 1086.97 1431.92 1086.17 1431.66 1085.28C1431.4 1084.38 1431.39 1083.43 1431.64 1082.53C1431.89 1081.64 1432.39 1080.83 1433.07 1080.2C1433.76 1079.56 1434.61 1079.14 1435.52 1078.96L1438.32 1078.43C1438.85 1078.33 1439.36 1078.1 1439.78 1077.76C1440.21 1077.42 1440.55 1076.98 1440.77 1076.48L1441.92 1073.88C1442.29 1073.02 1442.9 1072.29 1443.67 1071.77C1444.44 1071.24 1445.34 1070.94 1446.27 1070.9C1447.2 1070.86 1448.13 1071.08 1448.94 1071.54C1449.75 1072 1450.42 1072.67 1450.87 1073.49L1452.23 1075.99C1452.5 1076.46 1452.87 1076.87 1453.33 1077.17C1453.78 1077.48 1454.31 1077.66 1454.85 1077.72L1457.68 1078C1458.61 1078.1 1459.49 1078.45 1460.23 1079.02C1460.97 1079.59 1461.53 1080.35 1461.86 1081.22C1462.18 1082.1 1462.26 1083.04 1462.07 1083.96C1461.89 1084.87 1461.45 1085.71 1460.81 1086.39L1458.86 1088.47C1458.49 1088.86 1458.22 1089.35 1458.07 1089.87C1457.93 1090.4 1457.91 1090.95 1458.03 1091.48L1458.63 1094.27C1458.82 1095.18 1458.76 1096.13 1458.45 1097C1458.14 1097.88 1457.58 1098.65 1456.85 1099.23C1456.13 1099.81 1455.25 1100.18 1454.32 1100.28C1453.4 1100.39 1452.46 1100.24 1451.62 1099.84L1449.04 1098.63C1448.55 1098.39 1448.01 1098.28 1447.46 1098.31C1446.92 1098.33 1446.38 1098.49 1445.91 1098.76L1443.45 1100.19C1442.63 1100.68 1441.68 1100.91 1440.73 1100.88Z" fill="white"/>
<path opacity="0.2" d="M1479.83 1099.81C1479.14 1099.78 1478.46 1099.61 1477.84 1099.3C1477.22 1099 1476.67 1098.57 1476.23 1098.04C1475.78 1097.51 1475.45 1096.9 1475.25 1096.23C1475.06 1095.57 1475 1094.88 1475.09 1094.19L1475.44 1091.37C1475.51 1090.82 1475.45 1090.27 1475.26 1089.76C1475.07 1089.25 1474.75 1088.79 1474.35 1088.43L1472.23 1086.53C1471.53 1085.91 1471.02 1085.11 1470.76 1084.21C1470.5 1083.32 1470.49 1082.37 1470.74 1081.47C1470.99 1080.58 1471.49 1079.77 1472.17 1079.13C1472.86 1078.5 1473.7 1078.08 1474.62 1077.9L1477.42 1077.37C1477.95 1077.27 1478.46 1077.04 1478.88 1076.7C1479.31 1076.36 1479.65 1075.92 1479.87 1075.42L1481.02 1072.82C1481.39 1071.96 1482 1071.23 1482.77 1070.71C1483.54 1070.18 1484.44 1069.88 1485.37 1069.84C1486.3 1069.8 1487.23 1070.02 1488.04 1070.48C1488.85 1070.94 1489.52 1071.61 1489.97 1072.43L1491.33 1074.92C1491.6 1075.4 1491.97 1075.81 1492.43 1076.11C1492.88 1076.42 1493.4 1076.6 1493.95 1076.66L1496.78 1076.94C1497.71 1077.04 1498.59 1077.39 1499.33 1077.96C1500.06 1078.53 1500.63 1079.29 1500.95 1080.16C1501.28 1081.04 1501.36 1081.98 1501.17 1082.9C1500.99 1083.81 1500.55 1084.65 1499.91 1085.33L1497.96 1087.4C1497.59 1087.8 1497.32 1088.28 1497.17 1088.81C1497.03 1089.34 1497.01 1089.89 1497.13 1090.42L1497.73 1093.21C1497.92 1094.12 1497.86 1095.07 1497.55 1095.94C1497.24 1096.82 1496.68 1097.59 1495.95 1098.17C1495.23 1098.75 1494.35 1099.12 1493.42 1099.22C1492.5 1099.33 1491.56 1099.18 1490.72 1098.78L1488.14 1097.57C1487.65 1097.33 1487.11 1097.22 1486.56 1097.25C1486.01 1097.27 1485.48 1097.43 1485.01 1097.7L1482.55 1099.13C1481.73 1099.62 1480.78 1099.85 1479.83 1099.81Z" fill="black"/>
<path opacity="0.2" d="M1518.93 1098.75C1518.24 1098.72 1517.56 1098.55 1516.94 1098.24C1516.32 1097.94 1515.77 1097.51 1515.33 1096.98C1514.88 1096.45 1514.55 1095.84 1514.35 1095.17C1514.16 1094.51 1514.1 1093.82 1514.19 1093.13L1514.55 1090.3C1514.61 1089.76 1514.55 1089.21 1514.36 1088.7C1514.17 1088.19 1513.86 1087.73 1513.45 1087.37L1511.33 1085.47C1510.63 1084.85 1510.12 1084.05 1509.86 1083.15C1509.6 1082.26 1509.59 1081.31 1509.84 1080.41C1510.09 1079.52 1510.59 1078.71 1511.27 1078.07C1511.96 1077.44 1512.81 1077.02 1513.72 1076.84L1516.52 1076.31C1517.06 1076.21 1517.56 1075.98 1517.99 1075.64C1518.41 1075.3 1518.75 1074.86 1518.97 1074.36L1520.12 1071.76C1520.5 1070.9 1521.1 1070.17 1521.87 1069.65C1522.64 1069.12 1523.54 1068.82 1524.47 1068.78C1525.4 1068.74 1526.33 1068.96 1527.14 1069.42C1527.95 1069.88 1528.62 1070.55 1529.07 1071.37L1530.44 1073.86C1530.7 1074.34 1531.07 1074.75 1531.53 1075.05C1531.98 1075.35 1532.51 1075.54 1533.05 1075.6L1535.88 1075.88C1536.81 1075.98 1537.69 1076.33 1538.43 1076.9C1539.17 1077.47 1539.73 1078.23 1540.06 1079.1C1540.38 1079.98 1540.46 1080.92 1540.27 1081.84C1540.09 1082.75 1539.65 1083.59 1539.02 1084.27L1537.07 1086.34C1536.69 1086.74 1536.42 1087.22 1536.27 1087.75C1536.13 1088.28 1536.11 1088.83 1536.23 1089.36L1536.83 1092.15C1537.03 1093.06 1536.96 1094.01 1536.65 1094.88C1536.34 1095.76 1535.78 1096.53 1535.06 1097.11C1534.33 1097.69 1533.45 1098.06 1532.52 1098.16C1531.6 1098.27 1530.66 1098.12 1529.82 1097.72L1527.24 1096.51C1526.75 1096.27 1526.21 1096.16 1525.66 1096.19C1525.12 1096.21 1524.58 1096.36 1524.11 1096.64L1521.65 1098.07C1520.83 1098.56 1519.88 1098.79 1518.93 1098.75Z" fill="black"/>
<path d="M1768.04 1432.37L1769.19 1406.65C1781.11 1400.28 1794.41 1396.91 1807.93 1396.84C1789.32 1412.06 1791.65 1441.38 1779.03 1461.84C1775.05 1468.19 1769.69 1473.57 1763.34 1477.56C1757 1481.56 1749.84 1484.08 1742.39 1484.93L1726.82 1494.47C1724.68 1482.55 1725.15 1470.32 1728.2 1458.61C1731.25 1446.89 1736.8 1435.98 1744.47 1426.62C1748.82 1421.41 1753.81 1416.77 1759.33 1412.81C1763.06 1422.64 1768.04 1432.37 1768.04 1432.37Z" fill="#F2F2F2"/>
<path d="M1857.32 1496.72H1439.94C1439.62 1496.72 1439.32 1496.59 1439.09 1496.37C1438.87 1496.15 1438.75 1495.84 1438.75 1495.53C1438.75 1495.21 1438.87 1494.91 1439.09 1494.69C1439.32 1494.46 1439.62 1494.34 1439.94 1494.34H1857.32C1857.63 1494.34 1857.94 1494.46 1858.16 1494.69C1858.38 1494.91 1858.51 1495.21 1858.51 1495.53C1858.51 1495.84 1858.38 1496.15 1858.16 1496.37C1857.94 1496.59 1857.63 1496.72 1857.32 1496.72Z" fill="#CACACA"/>
</g>
<g clip-path="url(#clip1_129_756)">
<path d="M644.207 750.739L633.637 772.416L639.794 744.197C626.794 726.504 608.797 713.561 608.797 713.561C608.797 713.561 586.637 761.066 592.601 790.287C598.566 819.509 613.967 825.087 630.396 819.382C646.825 813.677 658.061 798.849 652.097 769.628C650.769 763.123 647.886 756.738 644.207 750.739Z" fill="#F2F2F2"/>
<path d="M630.22 774.577L630.514 776.017C633.866 792.783 634.367 806.598 631.997 817.271C631.964 817.427 631.925 817.579 631.892 817.735L631.34 817.522L630.81 817.309C633.495 805.74 632.297 791.12 629.376 776.496C629.286 776.024 629.194 775.544 629.091 775.068C627.812 768.892 626.246 762.739 624.542 756.825C624.413 756.365 624.277 755.901 624.141 755.436C621.86 747.646 619.368 740.31 617.059 733.988C616.897 733.54 616.73 733.094 616.564 732.655C612.622 721.974 609.28 714.407 608.529 712.736C608.44 712.53 608.388 712.418 608.377 712.391L608.857 712.019L608.861 712.01L609.347 711.635C609.358 711.661 609.534 712.036 609.841 712.738C611.002 715.359 614.087 722.497 617.643 732.089C617.802 732.523 617.969 732.969 618.131 733.417C620.009 738.545 622 744.314 623.894 750.437C624.371 751.974 624.828 753.495 625.264 755.001C625.405 755.463 625.541 755.928 625.67 756.387C627.513 762.78 629.03 768.843 630.22 774.577Z" fill="white"/>
<path d="M617.644 732.089C617.291 732.281 616.933 732.474 616.566 732.655C615.569 733.148 614.554 733.575 613.524 733.932C609.137 735.464 604.542 735.692 600.079 734.6C599.926 735.058 599.774 735.515 599.617 735.982C604.325 737.188 609.181 736.975 613.815 735.358C614.915 734.976 615.998 734.519 617.06 733.988C617.421 733.809 617.78 733.615 618.132 733.417C621.04 731.801 623.743 729.619 626.149 726.945C625.833 726.634 625.525 726.329 625.224 726.029C622.94 728.525 620.386 730.567 617.644 732.089Z" fill="white"/>
<path d="M625.265 755C624.893 755.16 624.519 755.305 624.142 755.436C624.028 755.483 623.908 755.525 623.793 755.565C619.038 757.216 614.047 757.343 609.246 755.935C604.444 754.527 599.975 751.625 596.22 747.478C596.087 747.974 595.954 748.471 595.828 748.973C599.711 753.141 604.299 756.042 609.213 757.436C614.127 758.831 619.225 758.678 624.084 756.991C624.237 756.938 624.391 756.884 624.542 756.824C624.923 756.684 625.298 756.539 625.671 756.387C631.428 753.97 636.53 749.441 640.366 743.342C640.105 742.982 639.845 742.622 639.578 742.264C635.859 748.236 630.884 752.662 625.265 755Z" fill="white"/>
<path d="M630.221 774.576C629.847 774.752 629.47 774.913 629.092 775.068C628.686 775.231 628.279 775.388 627.869 775.53C621.477 777.74 614.708 777.189 608.576 773.961C602.444 770.733 597.279 765.001 593.853 757.623C593.725 758.286 593.596 758.942 593.479 759.601C597.127 766.881 602.442 772.477 608.668 775.592C614.894 778.708 621.714 779.185 628.16 776.956C628.57 776.814 628.979 776.665 629.377 776.496C629.763 776.347 630.14 776.185 630.515 776.017C638.084 772.544 644.358 765.449 648.067 756.169C647.844 755.682 647.607 755.207 647.368 754.725C643.849 763.998 637.698 771.119 630.221 774.576Z" fill="white"/>
<path d="M589.746 257.105L579.176 278.781L585.333 250.563C572.333 232.87 554.336 219.927 554.336 219.927C554.336 219.927 532.176 267.431 538.14 296.653C544.105 325.875 559.506 331.453 575.935 325.748C592.364 320.043 603.6 305.215 597.636 275.993C596.308 269.489 593.425 263.104 589.746 257.105Z" fill="#F2F2F2"/>
<path d="M575.759 280.942L576.053 282.382C579.405 299.148 579.906 312.963 577.536 323.636C577.503 323.793 577.464 323.944 577.431 324.1L576.879 323.887L576.349 323.674C579.034 312.105 577.836 297.486 574.915 282.861C574.825 282.389 574.733 281.909 574.63 281.433C573.352 275.257 571.785 269.104 570.081 263.19C569.952 262.731 569.816 262.266 569.68 261.802C567.399 254.011 564.907 246.675 562.598 240.353C562.436 239.905 562.269 239.459 562.103 239.02C558.161 228.34 554.819 220.772 554.068 219.101C553.979 218.895 553.927 218.783 553.916 218.757L554.396 218.384L554.4 218.375L554.886 218C554.897 218.027 555.073 218.401 555.38 219.104C556.541 221.724 559.626 228.862 563.182 238.455C563.341 238.888 563.508 239.334 563.67 239.782C565.548 244.91 567.539 250.679 569.433 256.802C569.91 258.339 570.367 259.86 570.803 261.366C570.944 261.829 571.08 262.293 571.209 262.752C573.052 269.145 574.569 275.208 575.759 280.942Z" fill="white"/>
<path d="M563.183 238.455C562.83 238.646 562.472 238.839 562.105 239.02C561.108 239.513 560.093 239.94 559.063 240.298C554.676 241.829 550.081 242.057 545.618 240.965C545.465 241.423 545.313 241.881 545.156 242.347C549.864 243.553 554.72 243.34 559.355 241.724C560.454 241.342 561.537 240.884 562.599 240.353C562.961 240.174 563.319 239.98 563.671 239.782C566.579 238.166 569.282 235.984 571.688 233.31C571.372 232.999 571.064 232.694 570.763 232.394C568.479 234.89 565.925 236.932 563.183 238.455Z" fill="white"/>
<path d="M570.804 261.366C570.432 261.526 570.058 261.671 569.681 261.802C569.567 261.849 569.447 261.891 569.332 261.93C564.577 263.582 559.586 263.709 554.785 262.301C549.983 260.893 545.514 257.991 541.759 253.843C541.626 254.34 541.493 254.837 541.367 255.338C545.25 259.506 549.838 262.408 554.752 263.802C559.666 265.196 564.764 265.044 569.623 263.357C569.777 263.303 569.93 263.25 570.081 263.19C570.462 263.05 570.837 262.905 571.21 262.752C576.967 260.335 582.069 255.807 585.905 249.708C585.644 249.348 585.384 248.988 585.117 248.63C581.398 254.601 576.423 259.028 570.804 261.366Z" fill="white"/>
<path d="M575.76 280.942C575.386 281.118 575.009 281.279 574.631 281.433C574.225 281.597 573.818 281.754 573.408 281.896C567.016 284.105 560.247 283.555 554.115 280.327C547.983 277.098 542.818 271.366 539.392 263.989C539.264 264.652 539.135 265.308 539.018 265.967C542.666 273.247 547.981 278.842 554.207 281.958C560.433 285.074 567.253 285.551 573.699 283.322C574.109 283.18 574.518 283.03 574.917 282.861C575.302 282.712 575.679 282.551 576.054 282.382C583.623 278.91 589.897 271.815 593.606 262.535C593.383 262.047 593.146 261.572 592.907 261.09C589.388 270.364 583.237 277.485 575.76 280.942Z" fill="white"/>
<path d="M299.067 787.125L279.371 787.241L300.901 778.745C305.287 754.916 303.908 728.171 303.908 728.171C303.908 728.171 261.288 729.529 245.663 751.869C230.038 774.209 234.765 794.125 247.325 809.071C259.885 824.016 275.523 828.332 291.148 805.992C294.626 801.02 297.186 794.404 299.067 787.125Z" fill="#F2F2F2"/>
<path d="M276.131 784.662L275.361 785.763C266.358 798.503 257.718 806.52 249.552 809.688C249.434 809.737 249.315 809.776 249.197 809.825L249.035 809.103L248.887 808.407C257.801 805.1 266.583 795.883 274.437 784.773C274.693 784.418 274.953 784.058 275.204 783.688C278.497 778.947 281.619 773.902 284.513 768.835C284.739 768.445 284.966 768.045 285.192 767.645C288.984 760.931 292.369 754.231 295.199 748.28C295.4 747.86 295.597 747.436 295.791 747.017C300.55 736.918 303.625 729.16 304.297 727.433C304.381 727.224 304.425 727.106 304.436 727.08L304.936 727.405L304.944 727.404L305.449 727.735C305.437 727.761 305.291 728.157 305.004 728.874C303.941 731.565 301.005 738.807 296.739 747.895C296.545 748.304 296.348 748.728 296.146 749.148C293.853 753.98 291.209 759.283 288.283 764.671C287.549 766.026 286.815 767.35 286.08 768.642C285.858 769.047 285.632 769.447 285.405 769.837C282.278 775.315 279.187 780.257 276.131 784.662Z" fill="white"/>
<path d="M296.739 747.895C296.425 747.611 296.106 747.322 295.791 747.017C294.935 746.19 294.111 745.306 293.324 744.37C289.964 740.383 287.334 735.464 285.625 729.976C285.248 730.056 284.87 730.136 284.484 730.216C286.251 736.034 289.014 741.248 292.561 745.46C293.402 746.46 294.282 747.401 295.199 748.28C295.51 748.58 295.828 748.869 296.147 749.147C298.76 751.465 301.629 753.252 304.654 754.446C304.684 753.933 304.715 753.43 304.745 752.937C301.901 751.779 299.203 750.08 296.739 747.895Z" fill="white"/>
<path d="M286.079 768.642C285.775 768.32 285.479 767.988 285.191 767.645C285.099 767.546 285.008 767.437 284.92 767.332C281.284 763.006 278.504 757.598 276.818 751.568C275.131 745.538 274.587 739.065 275.232 732.702C274.84 732.825 274.448 732.948 274.056 733.081C273.467 739.595 274.075 746.198 275.832 752.344C277.588 758.49 280.442 764.002 284.157 768.423C284.274 768.562 284.391 768.701 284.512 768.835C284.808 769.177 285.104 769.51 285.404 769.837C290.075 774.848 295.754 777.999 301.762 778.912C301.853 778.432 301.944 777.951 302.031 777.465C296.169 776.611 290.625 773.545 286.079 768.642Z" fill="white"/>
<path d="M276.131 784.661C275.816 784.346 275.508 784.02 275.204 783.688C274.879 783.331 274.558 782.969 274.245 782.596C269.365 776.776 266.061 769.05 264.829 760.576C263.597 752.102 264.502 743.336 267.41 735.589C266.913 735.807 266.42 736.019 265.931 736.247C263.207 744.186 262.471 753.043 263.826 761.559C265.182 770.075 268.561 777.818 273.482 783.686C273.796 784.059 274.113 784.427 274.437 784.773C274.742 785.115 275.05 785.442 275.361 785.763C281.692 792.191 289.66 795.241 297.65 794.296C297.844 793.788 298.023 793.27 298.204 792.748C290.32 793.899 282.403 790.998 276.131 784.661Z" fill="white"/>
<path d="M233.68 807.281L244.996 807.28L250.38 750.346L233.678 750.347L233.68 807.281Z" fill="#FFB6B6"/>
<path d="M230.793 802.462L253.08 802.461H253.08C256.847 802.461 260.46 804.413 263.123 807.887C265.787 811.361 267.283 816.073 267.283 820.986V821.588L230.794 821.59L230.793 802.462Z" fill="#2F2E41"/>
<path d="M144.141 807.281L155.457 807.28L160.841 750.346L144.139 750.347L144.141 807.281Z" fill="#FFB6B6"/>
<path d="M141.254 802.462L163.54 802.461H163.541C167.308 802.461 170.921 804.413 173.584 807.887C176.247 811.361 177.744 816.073 177.744 820.986V821.588L141.255 821.59L141.254 802.462Z" fill="#2F2E41"/>
<path d="M163.333 573.417L155.706 582.573L147.109 693.191L141.322 781.271L158.81 784.347L201.227 633.85L232.263 783.633L253.187 784.347L239.3 588.828L163.333 573.417Z" fill="#2F2E41"/>
<path d="M200.192 409.85C212.191 409.85 221.918 397.163 221.918 381.513C221.918 365.862 212.191 353.175 200.192 353.175C188.194 353.175 178.467 365.862 178.467 381.513C178.467 397.163 188.194 409.85 200.192 409.85Z" fill="#FFB9B9"/>
<path d="M189.074 368.355C189.074 368.355 186.484 375.666 196.845 372.742C196.845 372.742 200.73 375.666 200.73 371.28C200.73 371.28 205.91 378.591 207.205 374.204C208.5 369.817 211.091 375.666 211.091 375.666L213.681 368.355L216.271 372.742H225.336C225.336 372.742 227.926 343.497 196.845 346.421C165.763 349.346 181.054 395.682 181.054 395.682C181.054 395.682 181.304 387.364 183.894 391.751C186.484 396.138 189.074 368.355 189.074 368.355Z" fill="#2F2E41"/>
<path d="M216.746 419.099L186.111 416.597L158.811 426.043L162.949 517.802L155.707 582.573C155.707 582.573 195.44 614.253 240.54 589.32L236.257 574.621C236.257 574.621 236.109 552.125 232.491 547.721C228.872 543.317 229.16 507.007 229.16 507.007L242.609 439.537L216.746 419.099Z" fill="#3F3D56"/>
<path d="M166.103 428.939L158.81 426.043C158.81 426.043 147.452 426.538 141.547 443.39C135.641 460.242 131.949 484.322 131.949 484.322L169.457 486.091L166.103 428.939Z" fill="#3F3D56"/>
<path d="M253.163 589.799L251.949 490.342L235.744 493.513L239.323 587.741C237.85 589.318 236.766 591.427 236.206 593.803C235.646 596.179 235.635 598.718 236.174 601.102C236.713 603.487 237.779 605.611 239.239 607.21C240.698 608.809 242.486 609.812 244.38 610.094C246.274 610.375 248.189 609.923 249.887 608.793C251.585 607.663 252.99 605.906 253.927 603.742C254.863 601.577 255.291 599.1 255.155 596.62C255.019 594.14 254.326 591.768 253.163 589.799Z" fill="#FFB9B9"/>
<path d="M233.487 448.203L242.609 439.537C242.609 439.537 260.137 457.418 260.196 496.756L235.744 504.491L221.918 478.554L233.487 448.203Z" fill="#3F3D56"/>
<path d="M725.441 807.225L736.758 807.224L742.141 750.29L725.439 750.291L725.441 807.225Z" fill="#9E616A"/>
<path d="M722.555 802.406L744.841 802.404C748.608 802.405 752.221 804.356 754.885 807.83C757.548 811.304 759.045 816.016 759.045 820.929V821.531L722.555 821.533L722.555 802.406Z" fill="#2F2E41"/>
<path d="M658.461 794.673L669.251 799.125L687.549 746.96L671.625 740.39L658.461 794.673Z" fill="#9E616A"/>
<path d="M656.823 788.942L678.072 797.709C681.663 799.191 684.657 802.473 686.393 806.834C688.129 811.194 688.466 816.275 687.33 820.959L687.191 821.533L652.4 807.179L656.823 788.942Z" fill="#2F2E41"/>
<path d="M683.941 547.2L677.661 570.302L677.483 695.02L659.674 780.41L681.535 788.368L705.684 707.853L713.429 637.133L723.636 708.264L722.231 792.808H745.169L746.9 662.524C747.386 625.935 742.478 589.565 732.442 555.391L683.941 547.2Z" fill="#2F2E41"/>
<path d="M676.462 453.62H713.537L729.028 473.827L733.656 557.348L677.661 569.1L659.674 489.41L669.469 455.54L676.462 453.62Z" fill="#11112B"/>
<path d="M663.129 490.207L606.047 462.194L604.561 450.614L640.56 410.882L652.543 422.604L630.825 453.62L669.47 455.541L663.129 490.207Z" fill="#11112B"/>
<path d="M647.485 427.133C652.583 427.133 656.715 421.743 656.715 415.093C656.715 408.444 652.583 403.053 647.485 403.053C642.387 403.053 638.254 408.444 638.254 415.093C638.254 421.743 642.387 427.133 647.485 427.133Z" fill="#9E616A"/>
<path d="M668.892 430.261L673.063 405.728C674.551 397.017 678.629 389.432 684.402 384.64C690.175 379.848 697.17 378.242 703.851 380.175C710.531 382.107 716.35 387.42 720.029 394.945C723.708 402.471 724.945 411.593 723.47 420.309L719.299 444.841C719.099 446.012 718.551 447.031 717.775 447.675C717 448.319 716.06 448.536 715.163 448.278L671.527 435.656C670.629 435.395 669.848 434.68 669.354 433.669C668.86 432.657 668.694 431.432 668.892 430.261Z" fill="#2F2E41"/>
<path d="M692.361 440.483C702.814 440.483 711.288 429.43 711.288 415.796C711.288 402.161 702.814 391.108 692.361 391.108C681.908 391.108 673.434 402.161 673.434 415.796C673.434 429.43 681.908 440.483 692.361 440.483Z" fill="#9E616A"/>
<path d="M666.767 405.966C667.945 399.074 671.171 393.072 675.738 389.278C680.304 385.484 685.838 384.207 691.125 385.729L694.887 386.817C700.172 388.354 704.773 392.562 707.682 398.518C710.591 404.474 711.569 411.692 710.403 418.588L710.319 419.079L702.37 416.779L701.342 406.092L699.116 415.838L695.008 414.65L694.489 409.257L693.366 414.175L666.684 406.457L666.767 405.966Z" fill="#2F2E41"/>
<path d="M685.878 442.701C685.617 441.934 685.527 441.087 685.619 440.256C685.711 439.425 685.981 438.645 686.398 438.006C692.066 429.269 700.754 412.61 695.262 399.197L694.867 398.233L716.375 404.455L709.214 446.572L688.911 445.417C688.706 445.405 688.501 445.37 688.301 445.312C687.767 445.158 687.27 444.841 686.848 444.387C686.427 443.933 686.095 443.356 685.878 442.701Z" fill="#2F2E41"/>
<path d="M922.902 823H17.0998C16.8089 822.999 16.5301 822.847 16.3247 822.579C16.1193 822.31 16.0039 821.946 16.0039 821.566C16.0039 821.187 16.1193 820.823 16.3247 820.554C16.5301 820.285 16.8089 820.134 17.0998 820.133H922.902C923.193 820.133 923.473 820.284 923.679 820.553C923.885 820.822 924.001 821.186 924.001 821.566C924.001 821.947 923.885 822.311 923.679 822.58C923.473 822.849 923.193 823 922.902 823Z" fill="#CACACA"/>
<path d="M473.804 468.093H180.9C178.677 468.093 176.475 468.664 174.421 469.774C172.367 470.884 170.5 472.51 168.928 474.561C167.356 476.612 166.108 479.046 165.258 481.726C164.407 484.405 163.969 487.277 163.969 490.177V582.059C163.969 584.959 164.407 587.831 165.258 590.51C166.108 593.19 167.356 595.624 168.928 597.675C170.5 599.726 172.367 601.352 174.421 602.462C176.475 603.572 178.677 604.143 180.9 604.143H185.199V620.743C185.199 621.751 185.428 622.735 185.857 623.573C186.286 624.41 186.896 625.063 187.61 625.449C188.323 625.834 189.108 625.935 189.866 625.738C190.623 625.542 191.319 625.057 191.865 624.345L207.353 604.143H473.804C476.027 604.143 478.229 603.572 480.283 602.462C482.337 601.352 484.204 599.726 485.776 597.675C487.348 595.624 488.595 593.19 489.446 590.51C490.297 587.831 490.735 584.959 490.735 582.059V490.177C490.735 487.277 490.297 484.405 489.446 481.726C488.595 479.046 487.348 476.612 485.776 474.561C484.204 472.51 482.337 470.884 480.283 469.774C478.229 468.664 476.027 468.093 473.804 468.093Z" fill="#E6E6E6"/>
<path d="M403.36 592.705H180.901C178.737 592.702 176.662 591.579 175.132 589.583C173.601 587.587 172.741 584.881 172.738 582.058V490.177C172.741 487.354 173.602 484.648 175.132 482.653C176.662 480.657 178.736 479.534 180.9 479.531H473.804C475.968 479.534 478.043 480.657 479.573 482.653C481.103 484.649 481.964 487.355 481.966 490.177C481.943 517.36 473.653 543.421 458.917 562.642C444.181 581.863 424.201 592.674 403.36 592.705Z" fill="white"/>
<path d="M389.505 499.396H265.814C262.755 499.396 260.275 502.631 260.275 506.62V506.62C260.275 510.61 262.755 513.844 265.814 513.844H389.505C392.564 513.844 395.043 510.61 395.043 506.62C395.043 502.631 392.564 499.396 389.505 499.396Z" fill="#11112B"/>
<path d="M415.813 528.292H239.507C236.448 528.292 233.969 531.527 233.969 535.516V535.516C233.969 539.506 236.448 542.74 239.507 542.74H415.813C418.872 542.74 421.352 539.506 421.352 535.516C421.352 531.527 418.872 528.292 415.813 528.292Z" fill="#E6E6E6"/>
<path d="M415.813 557.188H239.507C236.448 557.188 233.969 560.422 233.969 564.412V564.412C233.969 568.402 236.448 571.636 239.507 571.636H415.813C418.872 571.636 421.352 568.402 421.352 564.412C421.352 560.422 418.872 557.188 415.813 557.188Z" fill="#E6E6E6"/>
<path d="M891.102 532.068H679.285C677.677 532.068 676.085 532.481 674.6 533.284C673.114 534.087 671.764 535.263 670.627 536.746C669.49 538.229 668.588 539.99 667.973 541.927C667.358 543.865 667.041 545.942 667.041 548.039V614.485C667.041 616.582 667.358 618.659 667.973 620.596C668.588 622.534 669.49 624.295 670.627 625.778C671.764 627.261 673.114 628.437 674.6 629.24C676.085 630.042 677.677 630.455 679.285 630.455H682.394V642.46C682.394 643.188 682.56 643.9 682.87 644.506C683.18 645.112 683.621 645.584 684.137 645.862C684.653 646.141 685.221 646.214 685.769 646.072C686.317 645.93 686.82 645.579 687.215 645.064L698.415 630.455H891.102C892.71 630.455 894.303 630.042 895.788 629.24C897.274 628.437 898.623 627.261 899.76 625.778C900.897 624.295 901.799 622.534 902.415 620.596C903.03 618.659 903.347 616.582 903.347 614.485V548.039C903.347 545.942 903.03 543.865 902.415 541.927C901.799 539.99 900.897 538.229 899.76 536.746C898.623 535.263 897.274 534.087 895.788 533.284C894.303 532.481 892.71 532.068 891.102 532.068Z" fill="#E6E6E6"/>
<path d="M891.104 622.351H679.286C677.688 622.349 676.155 621.519 675.024 620.044C673.894 618.57 673.258 616.57 673.256 614.485V548.039C673.258 545.953 673.894 543.954 675.024 542.479C676.155 541.005 677.688 540.175 679.286 540.173H840.162C855.267 540.195 869.748 548.032 880.429 561.963C891.11 575.895 897.117 594.783 897.134 614.485C897.133 616.57 896.497 618.57 895.366 620.044C894.235 621.519 892.703 622.349 891.104 622.351Z" fill="white"/>
<path d="M830.142 554.706H740.693C738.481 554.706 736.688 557.045 736.688 559.93C736.688 562.815 738.481 565.154 740.693 565.154H830.142C832.354 565.154 834.147 562.815 834.147 559.93C834.147 557.045 832.354 554.706 830.142 554.706Z" fill="#11112B"/>
<path d="M849.165 575.603H721.667C719.455 575.603 717.662 577.941 717.662 580.827C717.662 583.712 719.455 586.051 721.667 586.051H849.165C851.378 586.051 853.171 583.712 853.171 580.827C853.171 577.941 851.378 575.603 849.165 575.603Z" fill="#E6E6E6"/>
<path d="M849.165 596.499H721.667C719.455 596.499 717.662 598.837 717.662 601.723C717.662 604.608 719.455 606.947 721.667 606.947H849.165C851.378 606.947 853.171 604.608 853.171 601.723C853.171 598.837 851.378 596.499 849.165 596.499Z" fill="#E6E6E6"/>
<path d="M439.289 298.495H651.106C652.714 298.495 654.306 298.908 655.792 299.711C657.278 300.513 658.627 301.69 659.764 303.173C660.901 304.656 661.803 306.416 662.418 308.354C663.034 310.292 663.351 312.368 663.351 314.466V380.911C663.351 383.009 663.034 385.085 662.418 387.023C661.803 388.961 660.901 390.721 659.764 392.204C658.627 393.687 657.278 394.864 655.792 395.666C654.306 396.469 652.714 396.882 651.106 396.882H647.997V408.887C647.997 409.615 647.832 410.327 647.521 410.933C647.211 411.538 646.77 412.01 646.254 412.289C645.738 412.568 645.17 412.641 644.623 412.499C644.075 412.357 643.572 412.006 643.177 411.491L631.977 396.882H439.289C437.681 396.882 436.089 396.469 434.603 395.666C433.118 394.864 431.768 393.687 430.631 392.204C429.494 390.721 428.592 388.961 427.977 387.023C427.362 385.086 427.045 383.009 427.045 380.912V314.466C427.045 312.368 427.362 310.292 427.977 308.354C428.592 306.416 429.494 304.656 430.631 303.173C431.768 301.69 433.118 300.513 434.603 299.711C436.089 298.908 437.681 298.495 439.289 298.495Z" fill="#E6E6E6"/>
<path d="M651.106 388.777H490.231C475.126 388.755 460.645 380.919 449.964 366.987C439.283 353.056 433.275 334.168 433.258 314.466C433.26 312.381 433.895 310.381 435.026 308.906C436.157 307.432 437.689 306.602 439.288 306.6H651.106C652.705 306.602 654.237 307.431 655.368 308.906C656.499 310.381 657.134 312.38 657.136 314.465V380.911C657.134 382.997 656.499 384.996 655.368 386.471C654.237 387.945 652.705 388.775 651.106 388.777Z" fill="white"/>
<path d="M500.249 331.581H589.698C591.91 331.581 593.703 329.242 593.703 326.357C593.703 323.472 591.91 321.133 589.698 321.133H500.249C498.037 321.133 496.244 323.472 496.244 326.357C496.244 329.242 498.037 331.581 500.249 331.581Z" fill="#11112B"/>
<path d="M481.225 352.477H608.723C610.935 352.477 612.729 350.138 612.729 347.253C612.729 344.368 610.935 342.029 608.723 342.029H481.225C479.013 342.029 477.22 344.368 477.22 347.253C477.22 350.138 479.013 352.477 481.225 352.477Z" fill="#E6E6E6"/>
<path d="M481.225 373.374H608.723C610.935 373.374 612.729 371.035 612.729 368.149C612.729 365.264 610.935 362.925 608.723 362.925H481.225C479.013 362.925 477.22 365.264 477.22 368.149C477.22 371.035 479.013 373.374 481.225 373.374Z" fill="#E6E6E6"/>
<path d="M195.179 466.262C195.179 462.91 194.158 459.694 192.341 457.323C190.523 454.953 188.058 453.621 185.487 453.621C182.917 453.621 180.451 454.953 178.634 457.323C176.816 459.694 175.795 462.91 175.795 466.262C175.795 466.386 175.806 466.505 175.809 466.628L158.81 488.8L160.103 484.924L140.718 483.72L137.891 510.415C137.643 512.879 137.988 515.383 138.878 517.581C139.768 519.779 141.159 521.562 142.859 522.684C144.559 523.807 146.485 524.213 148.369 523.847C150.254 523.481 152.005 522.361 153.381 520.641L186.889 478.757C189.191 478.32 191.295 476.817 192.818 474.523C194.34 472.229 195.178 469.297 195.179 466.262Z" fill="#FFB9B9"/>
<path d="M712.062 454.126L772.444 465.324L775.82 476.208L747.284 525.178L733.638 517.125L749.681 480.703L711.637 489.762L712.062 454.126Z" fill="#11112B"/>
<path d="M738.867 539.104C743.965 539.104 748.098 533.713 748.098 527.064C748.098 520.414 743.965 515.024 738.867 515.024C733.769 515.024 729.637 520.414 729.637 527.064C729.637 533.713 733.769 539.104 738.867 539.104Z" fill="#9E616A"/>
</g>
<defs>
<clipPath id="clip0_129_756">
<rect width="718.509" height="601.718" fill="white" transform="translate(1140 895)"/>
</clipPath>
<clipPath id="clip1_129_756">
<rect width="908" height="605" fill="white" transform="translate(16 218)"/>
</clipPath>
</defs>
</svg>
