<svg width="100" height="100" viewBox="0 0 100 100" fill="none" xmlns="http://www.w3.org/2000/svg">
<path d="M61.4715 77.9411L77.3539 93.8235C81.7656 98.2352 89.4127 98.2352 93.8245 93.8235C98.5303 89.4117 98.5303 81.7646 93.8245 77.3529L77.9421 61.4705C80.8833 55.8823 82.648 49.4117 82.648 42.647C82.648 41.4705 82.648 40.2941 82.3539 39.4117L93.2362 28.5294C94.4127 27.3529 94.4127 25.5882 93.2362 24.4117C92.0598 23.2352 90.295 23.2352 89.1186 24.4117L81.1774 32.3529C79.4127 25.5882 75.8833 19.7058 70.8833 14.7058C55.295 -0.88241 30.295 -0.88241 14.7068 14.7058C-0.881434 30.2941 -0.881434 55.2941 14.7068 70.8823C27.648 83.8235 46.7656 85.8823 61.4715 77.9411ZM89.4127 81.4705C91.7656 83.8235 91.7656 87.3529 89.4127 89.7058C87.0597 92.0588 83.5303 92.0588 81.1774 89.7058L66.1774 74.7058C67.648 73.5294 69.1186 72.3529 70.5892 70.8823C72.0597 69.4117 73.2362 67.9411 74.4127 66.4705L89.4127 81.4705ZM18.8244 18.8235C32.0597 5.58818 53.5303 5.58818 66.7656 18.8235C71.7656 23.8235 75.0009 30.2941 76.1774 37.3529L70.295 43.2352L60.5892 33.5294C59.4127 32.3529 57.648 32.3529 56.4715 33.5294L41.1774 48.8235L34.4127 42.0588C33.2362 40.8823 31.4715 40.8823 30.295 42.0588L18.5303 53.8235C17.3539 54.9999 17.3539 56.7647 18.5303 57.9411C19.7068 59.1176 21.4715 59.1176 22.648 57.9411L32.3539 48.2352C36.7656 51.7646 40.0009 58.2352 43.2362 54.9999L58.5303 39.7058L68.2362 49.4117C69.4127 50.5882 71.1774 50.5882 72.3539 49.4117L76.4715 45.2941C75.8833 53.5294 72.3539 60.8823 66.7656 66.7647C53.5303 79.9999 32.0597 79.9999 18.8244 66.7647C5.58915 53.5294 5.58915 32.0588 18.8244 18.8235Z" fill="white"/>
</svg>
