<svg width="72" height="72" viewBox="0 0 72 72" fill="none" xmlns="http://www.w3.org/2000/svg">
<mask id="mask0_172_84" style="mask-type:luminance" maskUnits="userSpaceOnUse" x="0" y="0" width="72" height="72">
<path d="M0 7.62939e-06H72V72H0V7.62939e-06Z" fill="white"/>
</mask>
<g mask="url(#mask0_172_84)">
<path d="M53.3327 34.7427C55.0974 32.9781 55.0974 30.1167 53.3327 28.352C51.5682 26.5874 48.7067 26.5874 46.9422 28.352C44.9913 30.3042 42.5036 32.7905 40.5514 34.7427C38.7869 36.5073 38.7869 39.3687 40.5514 41.1333C42.3173 42.898 45.1776 42.898 46.9422 41.1333C48.8943 39.1812 51.3818 36.6947 53.3327 34.7427Z" stroke="#11112B" stroke-width="4" stroke-miterlimit="10" stroke-linecap="round" stroke-linejoin="round"/>
<path d="M58.126 42.7307C59.8905 40.9662 59.8905 38.1047 58.126 36.34C56.3614 34.5755 53.5 34.5755 51.7354 36.34C50.2328 37.8426 48.4445 39.6309 46.9421 41.1334C45.1775 42.8979 45.1775 45.7582 46.9421 47.5239C48.7066 49.2885 51.5681 49.2885 53.3326 47.5239C54.8352 46.0204 56.6234 44.2332 58.126 42.7307Z" stroke="#11112B" stroke-width="4" stroke-miterlimit="10" stroke-linecap="round" stroke-linejoin="round"/>
<path d="M62.9181 50.7187C63.7665 49.8715 64.2421 48.7214 64.2421 47.524C64.2421 46.3253 63.7665 45.1753 62.9181 44.328C62.071 43.4808 60.9221 43.0052 59.7234 43.0052C58.5249 43.0052 57.376 43.4808 56.5286 44.328C55.4995 45.3561 54.3607 46.4948 53.3327 47.524C52.4855 48.3713 52.01 49.5202 52.01 50.7187C52.01 51.9173 52.4855 53.0662 53.3327 53.9134C54.18 54.7618 55.33 55.2374 56.5286 55.2374C57.7261 55.2374 58.8762 54.7618 59.7234 53.9134C60.7515 52.8855 61.8902 51.7467 62.9181 50.7187Z" stroke="#11112B" stroke-width="4" stroke-miterlimit="10" stroke-linecap="round" stroke-linejoin="round"/>
<path d="M46.9421 28.352C46.9421 28.352 53.8897 21.4056 58.126 17.1693C58.9734 16.3209 59.449 15.172 59.449 13.9734C59.449 12.7749 58.9734 11.626 58.126 10.7787C57.2788 9.93129 56.1287 9.45471 54.9302 9.45471C53.7316 9.45471 52.5826 9.93129 51.7355 10.7787L27.7714 34.7427C27.7714 34.7427 26.7626 30.3742 25.6712 25.643C25.1291 23.2922 23.3531 21.4204 21.0328 20.7549C18.7136 20.0895 16.2158 20.7356 14.5099 22.4427C14.5088 22.4427 14.5088 22.4438 14.5088 22.4438L14.5359 49.5563L7.75781 56.3344L21.3141 69.8907H40.9401C42.7376 69.8907 44.4614 69.1756 45.7322 67.9046C50.6351 63.003 62.9181 50.7187 62.9181 50.7187" stroke="#11112B" stroke-width="4" stroke-miterlimit="10" stroke-linecap="round" stroke-linejoin="round"/>
<path d="M27.7715 34.7427C27.7715 34.7427 28.4154 35.3866 29.3688 36.3401C33.7803 40.7515 33.7803 47.9046 29.3688 52.316" stroke="#11112B" stroke-width="4" stroke-miterlimit="10" stroke-linecap="round" stroke-linejoin="round"/>
</g>
</svg>
