<svg width="72" height="72" viewBox="0 0 72 72" fill="none" xmlns="http://www.w3.org/2000/svg">
<path d="M66.0001 15V27C66.0001 27.7957 65.6841 28.5587 65.1214 29.1213C64.5588 29.6839 63.7958 30 63.0001 30C62.2045 30 61.4414 29.6839 60.8788 29.1213C60.3162 28.5587 60.0001 27.7957 60.0001 27V22.56L41.2501 43.98C40.969 44.3 40.6229 44.5565 40.235 44.7323C39.847 44.9082 39.4261 44.9995 39.0001 45C38.5881 45.0105 38.1783 44.936 37.7964 44.7812C37.4144 44.6264 37.0685 44.3945 36.7801 44.1L30.0601 37.32L11.1601 58.98C10.9061 59.2954 10.5908 59.5561 10.2333 59.7464C9.87586 59.9367 9.48355 60.0526 9.08005 60.0872C8.67656 60.1218 8.27023 60.0744 7.88557 59.9477C7.50091 59.8211 7.14587 59.6178 6.84185 59.3503C6.53783 59.0828 6.29112 58.7565 6.1166 58.391C5.94208 58.0256 5.84335 57.6286 5.82637 57.224C5.80939 56.8193 5.87451 56.4155 6.0178 56.0367C6.16109 55.6579 6.37958 55.3121 6.66012 55.02L27.6601 31.02C27.9303 30.7104 28.2613 30.4597 28.6324 30.2833C29.0035 30.1069 29.4069 30.0086 29.8176 29.9945C30.2282 29.9805 30.6374 30.0509 31.0197 30.2015C31.4021 30.3521 31.7494 30.5796 32.0401 30.87L39.0001 37.59L56.0101 18H51.0001C50.2045 18 49.4414 17.6839 48.8788 17.1213C48.3162 16.5587 48.0001 15.7956 48.0001 15C48.0001 14.2044 48.3162 13.4413 48.8788 12.8787C49.4414 12.3161 50.2045 12 51.0001 12H63.0001C63.7958 12 64.5588 12.3161 65.1214 12.8787C65.6841 13.4413 66.0001 14.2044 66.0001 15Z" fill="#11112B"/>
</svg>
