<svg width="24" height="24" viewBox="0 0 24 24" fill="none" xmlns="http://www.w3.org/2000/svg">
<rect width="24" height="24" fill="#1E1E1E"/>
<g clip-path="url(#clip0_0_1)">
<rect width="1920" height="6623" transform="translate(-1690 -616)" fill="#D5D9E6"/>
<g filter="url(#filter0_b_0_1)">
<rect x="-470" y="-120" width="550" height="211" rx="25" fill="url(#paint0_linear_0_1)"/>
<rect x="-469.5" y="-119.5" width="549" height="210" rx="24.5" stroke="url(#paint1_linear_0_1)"/>
</g>
<g clip-path="url(#clip1_0_1)">
<path d="M23.7068 22.293L16.8818 15.468C18.2038 13.8351 18.9998 11.7601 18.9998 9.50011C18.9998 4.26216 14.7378 0.000183105 9.49988 0.000183105C4.26193 0.000183105 0 4.26211 0 9.50006C0 14.738 4.26197 19 9.49992 19C11.7599 19 13.8349 18.204 15.4678 16.882L22.2928 23.7069C22.4878 23.9019 22.7438 23.9999 22.9998 23.9999C23.2558 23.9999 23.5118 23.9019 23.7068 23.7069C24.0978 23.316 24.0978 22.6839 23.7068 22.293ZM9.49992 17C5.36395 17 2 13.636 2 9.50006C2 5.36408 5.36395 2.00013 9.49992 2.00013C13.6359 2.00013 16.9998 5.36408 16.9998 9.50006C16.9998 13.636 13.6359 17 9.49992 17Z" fill="#11112B"/>
</g>
</g>
<defs>
<filter id="filter0_b_0_1" x="-480" y="-130" width="570" height="231" filterUnits="userSpaceOnUse" color-interpolation-filters="sRGB">
<feFlood flood-opacity="0" result="BackgroundImageFix"/>
<feGaussianBlur in="BackgroundImageFix" stdDeviation="5"/>
<feComposite in2="SourceAlpha" operator="in" result="effect1_backgroundBlur_0_1"/>
<feBlend mode="normal" in="SourceGraphic" in2="effect1_backgroundBlur_0_1" result="shape"/>
</filter>
<linearGradient id="paint0_linear_0_1" x1="-195" y1="-120" x2="-195" y2="91" gradientUnits="userSpaceOnUse">
<stop stop-color="white" stop-opacity="0.3"/>
<stop offset="1" stop-color="white" stop-opacity="0.1"/>
</linearGradient>
<linearGradient id="paint1_linear_0_1" x1="-195" y1="-120" x2="-195" y2="91" gradientUnits="userSpaceOnUse">
<stop stop-color="white" stop-opacity="0.2"/>
<stop offset="1" stop-color="white" stop-opacity="0"/>
</linearGradient>
<clipPath id="clip0_0_1">
<rect width="1920" height="6623" fill="white" transform="translate(-1690 -616)"/>
</clipPath>
<clipPath id="clip1_0_1">
<rect width="24" height="24" fill="white"/>
</clipPath>
</defs>
</svg>
