<svg width="259" height="48" viewBox="0 0 259 48" fill="none" xmlns="http://www.w3.org/2000/svg">
<path d="M126.392 26.4957C126.248 26.4957 123.08 26.4957 121.64 26.4957C120.872 26.4957 120.632 26.2077 120.632 25.4877C120.632 23.5677 120.632 21.5997 120.632 19.6797C120.632 18.9117 120.92 18.6717 121.64 18.6717H126.392C126.392 18.5277 126.392 15.7437 126.392 14.4477C126.392 12.5277 126.728 10.7037 127.688 9.02366C128.696 7.29566 130.136 6.14366 131.96 5.47166C133.16 5.03966 134.36 4.84766 135.656 4.84766H140.36C141.032 4.84766 141.32 5.13566 141.32 5.80766V11.2797C141.32 11.9517 141.032 12.2397 140.36 12.2397C139.064 12.2397 137.768 12.2397 136.472 12.2877C135.176 12.2877 134.504 12.9117 134.504 14.2557C134.456 15.6957 134.504 17.0877 134.504 18.5757H140.072C140.84 18.5757 141.128 18.8637 141.128 19.6317V25.4397C141.128 26.2077 140.888 26.4477 140.072 26.4477C138.344 26.4477 134.648 26.4477 134.504 26.4477V42.0957C134.504 42.9117 134.264 43.1997 133.4 43.1997C131.384 43.1997 129.416 43.1997 127.4 43.1997C126.68 43.1997 126.392 42.9117 126.392 42.1917C126.392 37.1517 126.392 26.6397 126.392 26.4957Z" fill="white"/>
<g clip-path="url(#clip0_49_119)">
<path d="M32.25 3H10.75C4.83803 3 0 7.72346 0 13.5V34.5C0 40.2745 4.83803 45 10.75 45H32.25C38.162 45 43 40.2745 43 34.5V13.5C43 7.72346 38.162 3 32.25 3ZM21.5 32.7497C16.5517 32.7497 12.5415 28.831 12.5415 24C12.5415 19.1668 16.5517 15.2498 21.5 15.2498C26.4461 15.2498 30.4585 19.1668 30.4585 24C30.4585 28.831 26.4461 32.7497 21.5 32.7497ZM33.146 15.2498C31.6603 15.2498 30.4585 14.0743 30.4585 12.6248C30.4585 11.1753 31.6603 9.99983 33.146 9.99983C34.6317 9.99983 35.8335 11.1753 35.8335 12.6248C35.8335 14.0743 34.6317 15.2498 33.146 15.2498Z" fill="white"/>
</g>
<g clip-path="url(#clip1_49_119)">
<path d="M259 11.5975C257.513 12.25 255.927 12.6825 254.275 12.8925C255.975 11.8775 257.273 10.2825 257.882 8.36C256.298 9.305 254.548 9.9725 252.682 10.345C251.177 8.7425 249.032 7.75 246.692 7.75C242.153 7.75 238.497 11.435 238.497 15.9525C238.497 16.6025 238.552 17.2275 238.688 17.8225C231.87 17.49 225.838 14.2225 221.785 9.245C221.077 10.4725 220.663 11.8775 220.663 13.39C220.663 16.23 222.125 18.7475 224.305 20.205C222.987 20.18 221.695 19.7975 220.6 19.195C220.6 19.22 220.6 19.2525 220.6 19.285C220.6 23.27 223.442 26.58 227.17 27.3425C226.502 27.525 225.775 27.6125 225.02 27.6125C224.495 27.6125 223.965 27.5825 223.467 27.4725C224.53 30.72 227.545 33.1075 231.13 33.185C228.34 35.3675 224.798 36.6825 220.963 36.6825C220.29 36.6825 219.645 36.6525 219 36.57C222.632 38.9125 226.938 40.25 231.58 40.25C246.67 40.25 254.92 27.75 254.92 16.915C254.92 16.5525 254.908 16.2025 254.89 15.855C256.518 14.7 257.885 13.2575 259 11.5975Z" fill="white"/>
</g>
<defs>
<clipPath id="clip0_49_119">
<rect width="43" height="42" fill="white" transform="translate(0 3)"/>
</clipPath>
<clipPath id="clip1_49_119">
<rect width="40" height="40" fill="white" transform="translate(219 4)"/>
</clipPath>
</defs>
</svg>
