<svg width="3957" height="2734" viewBox="0 0 3957 2734" fill="none" xmlns="http://www.w3.org/2000/svg">
<g opacity="0.5" clip-path="url(#clip0_49_44)">
<path d="M70.133 1190.48C98.8937 1352.34 259.093 1467.81 422.431 1485.85C585.77 1503.88 748.341 1442.24 889.76 1358.55C1031.18 1274.86 1158.32 1168.79 1299.49 1084.72C1440.66 1000.65 1602.72 938.074 1766.21 954.717C1964.48 974.918 2131.43 1105.99 2315.67 1182.1C2606.06 1302.11 2951.74 1278.85 3223.35 1121C3363.37 1039.65 3494.52 894.428 3464.97 735.09" stroke="white" stroke-width="0.85" stroke-linecap="round" stroke-linejoin="round"/>
<path d="M48.2996 1156.87C77.0603 1318.73 237.259 1434.21 400.598 1452.24C563.937 1470.28 726.508 1408.64 867.927 1324.95C1009.35 1241.26 1136.48 1135.19 1277.65 1051.12C1418.82 967.043 1580.89 904.469 1744.38 921.113C1942.65 941.313 2109.6 1072.39 2293.83 1148.5C2584.23 1268.51 2929.91 1245.25 3201.52 1087.4C3341.54 1006.04 3472.69 860.823 3443.13 701.486" stroke="white" stroke-width="0.85" stroke-linecap="round" stroke-linejoin="round"/>
<path d="M26.4282 1123.28C55.1889 1285.14 215.388 1400.62 378.727 1418.65C542.066 1436.69 704.637 1375.04 846.056 1291.36C987.474 1207.67 1114.61 1101.6 1255.78 1017.52C1396.95 933.451 1559.02 870.878 1722.5 887.521C1920.78 907.722 2087.73 1038.79 2271.96 1114.9C2562.35 1234.92 2908.03 1211.65 3179.65 1053.8C3319.67 972.45 3450.82 827.231 3421.26 667.894" stroke="white" stroke-width="0.85" stroke-linecap="round" stroke-linejoin="round"/>
<path d="M4.55657 1089.69C33.3173 1251.55 193.516 1367.02 356.855 1385.06C520.194 1403.09 682.765 1341.45 824.184 1257.76C965.603 1174.07 1092.74 1068.01 1233.91 983.933C1375.08 899.86 1537.15 837.286 1700.63 853.929C1898.91 874.13 2065.86 1005.2 2250.09 1081.31C2540.48 1201.33 2886.16 1178.06 3157.78 1020.21C3297.79 938.859 3428.95 793.639 3399.39 634.302" stroke="white" stroke-width="0.85" stroke-linecap="round" stroke-linejoin="round"/>
</g>
<defs>
<clipPath id="clip0_49_44">
<rect width="3604" height="1725" fill="white" transform="matrix(-0.953223 0.302267 0.302267 0.953223 3435.42 0)"/>
</clipPath>
</defs>
</svg>
